<svg xmlns="http://www.w3.org/2000/svg" viewBox="0 0 256 256">
  <defs>
    <linearGradient id="g" x1="0" y1="0" x2="1" y2="1">
      <stop offset="0" stop-color="#ff5aa5"/>
      <stop offset="1" stop-color="#ffd84a"/>
    </linearGradient>
  </defs>
  <rect width="256" height="256" rx="64" fill="url(#g)"/>
  <g fill="rgba(255,255,255,0.92)">
    <path d="M56 128c0-40 32-72 72-72s72 32 72 72c0 56-36 88-72 88s-72-32-72-88z"/>
    <path d="M78 78 54 50c-8-8-4-20 8-24 8-3 16 0 20 8l16 32"/>
    <path d="M178 78l24-28c8-8 4-20-8-24-8-3-16 0-20 8l-16 32"/>
  </g>
  <g fill="#191919">
    <circle cx="104" cy="124" r="10"/>
    <circle cx="152" cy="124" r="10"/>
    <path d="M128 140c8 0 16 4 16 12s-8 12-16 12-16-4-16-12 8-12 16-12z"/>
  </g>
  <path d="M96 160c10 10 22 14 32 14s22-4 32-14" stroke="#191919" stroke-width="10" stroke-linecap="round" fill="none"/>
</svg>